<?xml version="1.0" encoding="utf-8"?>
<!-- Generator: Adobe Illustrator 26.0.1, SVG Export Plug-In . SVG Version: 6.00 Build 0)  -->
<svg version="1.1" id="Слой_1" xmlns="http://www.w3.org/2000/svg" xmlns:xlink="http://www.w3.org/1999/xlink" x="0px" y="0px"
	 viewBox="0 0 1024 1024" style="enable-background:new 0 0 1024 1024;" xml:space="preserve">
<style type="text/css">
	.st0{fill:#FFFFFF;}
	.st1{fill-rule:evenodd;clip-rule:evenodd;fill:#FFFFFF;}
</style>
<g>
	<path class="st0" d="M132.8,859.9c-2.3-1.5-5-2.5-7.8-2.7v-0.8c2.4-0.6,4.7-1.7,6.8-3c2.1-1.4,3.9-3.3,5.1-5.6c1.4-2.8,2-5.9,1.9-9
		c0-3.9-0.9-7.8-2.8-11.2c-2-3.5-5-6.3-8.6-8.1c-4.6-2.2-9.6-3.2-14.6-3H83v84l30.7,0.1c5.6,0.2,11.1-0.8,16.3-2.9
		c3.8-1.7,7-4.5,9.2-8c2-3.5,3-7.4,2.9-11.4c0.1-3.9-0.8-7.8-2.7-11.2C137.8,864.2,135.5,861.7,132.8,859.9z M93.3,825.6h19.4
		c5.6,0,9.8,1.2,12.4,3.8c1.3,1.2,2.2,2.7,2.9,4.3c0.7,1.6,1,3.4,0.9,5.1c0.1,2.7-0.7,5.4-2.2,7.6c-1.5,2.2-3.5,4-6,5.1
		c-2.6,1.2-5.5,1.8-8.4,1.8H93.3V825.6z M131.2,883.5c-0.7,1.6-1.8,3.1-3.2,4.2c-2.8,2.5-7.6,3.8-14.3,3.8H93.3v-29.2h20.9
		c3.3-0.1,6.7,0.7,9.6,2.2c2.6,1.3,4.7,3.4,6.2,5.8c1.5,2.4,2.2,5.1,2.2,7.9C132.3,880.1,131.9,881.9,131.2,883.5z"/>
	<path class="st0" d="M219.7,820.3c-5.9-3.5-12.6-5.3-19.4-5.3s-13.5,1.8-19.4,5.3c-5.8,3.7-10.4,8.9-13.4,15.1
		c-3.2,7.3-4.9,15.2-4.9,23.2c0,8,1.7,15.9,4.9,23.2c2.9,6.2,7.6,11.4,13.4,15.1c5.9,3.5,12.6,5.3,19.4,5.3c6.8,0,13.5-1.8,19.4-5.3
		c5.8-3.7,10.4-8.9,13.4-15.1c3.4-7.2,5.1-15.1,4.9-23.1c0.2-8-1.5-16-4.9-23.3C230.2,829.2,225.5,823.9,219.7,820.3z M228,858.6
		L228,858.6c0.2,6.4-1.1,12.7-3.7,18.6c-2.1,4.7-5.6,8.7-10,11.6c-4.2,2.5-9.1,3.9-14,3.9s-9.8-1.3-14-3.9c-4.4-2.8-7.8-6.8-10-11.6
		c-4.9-11.9-4.9-25.3,0-37.2c2.1-4.7,5.6-8.7,10-11.6c4.2-2.5,9.1-3.9,14-3.9s9.8,1.3,14,3.9c4.4,2.8,7.8,6.8,10,11.6
		C226.9,845.9,228.2,852.2,228,858.6z"/>
	<path class="st0" d="M310.5,861c-2.5-1.7-5.1-3.1-7.9-4.1c-2.8-1-5.3-1.8-7.5-2.4l-8.7-2.3c-1.6-0.4-3.3-1-5.3-1.6
		c-1.9-0.7-3.7-1.5-5.5-2.6c-1.7-1-3.1-2.4-4.3-4c-1.1-1.7-1.7-3.7-1.7-5.8c0-2.6,0.8-5.1,2.4-7.2c1.7-2.2,4-3.9,6.6-5
		c3.2-1.3,6.6-2,10-1.9c4.6-0.2,9.2,1.1,13.2,3.5c1.7,1,3.2,2.5,4.2,4.2c1.1,1.7,1.7,3.6,1.9,5.6h10c-0.1-4.1-1.5-8.1-4-11.4
		c-2.7-3.5-6.2-6.2-10.3-7.9c-4.7-2-9.7-3-14.8-2.9c-5.1-0.1-10.2,0.9-14.9,3c-4.2,1.8-7.9,4.6-10.6,8.2c-2.6,3.6-4,8-3.9,12.4
		c-0.1,2.6,0.4,5.2,1.4,7.5c1,2.4,2.5,4.5,4.5,6.3c4.6,3.9,10.1,6.7,16,8.1l10.6,3c2.9,0.8,5.7,1.7,8.4,2.9c2.4,1,4.6,2.4,6.3,4.3
		c1.6,1.9,2.5,4.3,2.4,6.8c0.1,2.9-0.9,5.8-2.8,8.1c-2,2.4-4.6,4.2-7.5,5.4c-3.4,1.3-7.1,2-10.7,1.9c-3.2,0-6.5-0.5-9.6-1.5
		c-2.8-0.9-5.3-2.5-7.3-4.6c-2-2.2-3.1-5-3.3-7.9h-10.7c0.2,4.4,1.7,8.6,4.3,12.2c2.7,3.6,6.4,6.4,10.6,8.2
		c10.6,4,22.4,3.9,32.9-0.3c4.3-1.9,8-4.9,10.6-8.8c2.4-3.7,3.7-8,3.6-12.4c0.1-3.5-0.7-7-2.5-10C315.1,865,313,862.8,310.5,861z"/>
	<path class="st0" d="M391.5,861c-2.5-1.7-5.1-3.1-7.9-4.1c-2.8-1-5.3-1.8-7.5-2.4l-8.7-2.3c-1.6-0.4-3.3-1-5.3-1.6
		c-1.9-0.7-3.7-1.5-5.4-2.6c-1.7-1-3.1-2.4-4.3-4c-1.1-1.7-1.7-3.7-1.7-5.8c0-2.6,0.8-5.1,2.4-7.2c1.7-2.2,4-3.9,6.6-5
		c3.2-1.3,6.5-2,10-1.9c4.7-0.2,9.3,1.1,13.2,3.5c1.7,1,3.2,2.5,4.2,4.2c1.1,1.7,1.7,3.6,1.9,5.6h10c-0.1-4.1-1.4-8.1-3.9-11.4
		c-2.7-3.5-6.2-6.2-10.3-7.9c-4.7-2-9.7-3-14.8-2.9c-5.1-0.1-10.2,0.9-14.9,3c-4.2,1.8-7.9,4.6-10.6,8.2c-2.6,3.6-4,8-3.9,12.4
		c-0.1,2.6,0.4,5.2,1.4,7.5c1,2.4,2.5,4.5,4.5,6.3c4.6,3.9,10.1,6.7,16,8.1l10.6,3c2.9,0.8,5.7,1.8,8.5,2.9c2.4,1,4.5,2.4,6.3,4.3
		c1.7,1.9,2.5,4.3,2.4,6.8c0,2.9-0.9,5.8-2.8,8.1c-2,2.4-4.6,4.2-7.5,5.4c-3.4,1.3-7,2-10.7,1.9c-3.2,0-6.5-0.5-9.6-1.5
		c-2.8-0.9-5.3-2.5-7.3-4.6c-2-2.2-3.1-5-3.3-7.9h-10.7c0.3,4.4,1.8,8.6,4.4,12.2c2.7,3.6,6.4,6.4,10.6,8.2
		c10.6,4,22.3,3.9,32.8-0.3c4.3-1.9,8-4.9,10.6-8.8c2.4-3.7,3.7-8,3.6-12.4c0.1-3.5-0.7-7-2.5-10C396.3,865,394.1,862.8,391.5,861z"
		/>
	<polygon class="st0" points="424,900.6 434.1,900.6 434.1,863 470.4,863 470.4,854 434.1,854 434.1,825.5 474.2,825.5 474.2,816.5 
		424,816.5 	"/>
	<path class="st0" d="M551.9,820.3c-5.9-3.5-12.6-5.3-19.4-5.3s-13.5,1.8-19.4,5.3c-5.8,3.7-10.4,8.9-13.4,15.1
		c-3.2,7.3-4.9,15.2-4.9,23.2c0,8,1.7,15.9,4.9,23.2c2.9,6.2,7.6,11.4,13.4,15.1c5.9,3.5,12.6,5.3,19.4,5.3c6.8,0,13.5-1.8,19.4-5.3
		c5.8-3.7,10.4-8.9,13.4-15.1c3.4-7.2,5.1-15.1,4.9-23.1c0.2-8-1.5-16-4.9-23.3C562.3,829.2,557.7,824,551.9,820.3z M556.4,877.2
		c-2.1,4.7-5.6,8.7-10,11.6c-4.2,2.5-9.1,3.9-14,3.9c-4.9,0-9.8-1.3-14-3.9c-4.4-2.8-7.8-6.8-10-11.6c-4.9-11.9-4.9-25.3,0-37.2
		c2.1-4.7,5.6-8.7,10-11.6c4.2-2.5,9.1-3.9,14-3.9c4.9,0,9.8,1.3,14,3.9c4.4,2.8,7.8,6.8,10,11.6c2.6,5.8,3.9,12.2,3.7,18.6
		C560.3,865,559.1,871.4,556.4,877.2z"/>
	<path class="st0" d="M638.6,864.5c4-2,7.2-5.1,9.4-9c2.1-4.1,3.1-8.6,3-13.2c0.1-4.6-1-9.1-3-13.2c-2.1-4-5.4-7.2-9.4-9.2
		c-5.1-2.4-10.6-3.5-16.2-3.3h-28.5v84l10.3,0.1v-32.9h18.4c0.7,0,1.5,0,2.2,0l17.8,32.8h11.8l-19.1-34.7
		C636.3,865.4,637.5,865,638.6,864.5z M604,825.6h18c3.8-0.2,7.5,0.6,11,2.1c2.6,1.2,4.8,3.3,6.1,5.8c1.3,2.8,2,5.8,1.9,8.8
		c0.1,3-0.6,6-1.9,8.7c-1.3,2.5-3.4,4.5-6,5.6c-3.5,1.4-7.2,2.1-10.9,1.9H604V825.6z"/>
	<path class="st0" d="M723.8,861c-2.5-1.7-5.1-3.1-8-4.1c-2.8-1-5.3-1.8-7.5-2.4l-8.8-2.3c-1.6-0.4-3.3-1-5.2-1.6
		c-1.9-0.7-3.7-1.5-5.5-2.6c-1.7-1-3.1-2.4-4.3-4c-1.1-1.7-1.7-3.7-1.7-5.7c0-2.6,0.8-5.1,2.4-7.2c1.7-2.2,4-3.9,6.6-5
		c3.2-1.3,6.6-2,10-1.9c4.6-0.2,9.2,1.1,13.2,3.5c1.7,1,3.2,2.5,4.2,4.2c1.1,1.7,1.7,3.6,1.9,5.6l10.2-0.1c-0.1-4.1-1.5-8.1-4-11.4
		c-2.7-3.5-6.2-6.2-10.3-7.9c-4.7-2-9.7-3-14.8-2.9c-5.1-0.1-10.2,0.9-14.9,3c-4.2,1.8-7.9,4.6-10.6,8.2c-2.6,3.6-4,7.9-3.9,12.4
		c-0.1,2.6,0.4,5.2,1.4,7.5c1,2.4,2.5,4.5,4.5,6.3c4.6,3.9,10,6.7,15.9,8.2l10.6,2.9c2.9,0.8,5.7,1.7,8.4,2.9c2.4,1,4.5,2.4,6.3,4.3
		c1.7,1.9,2.5,4.3,2.4,6.8c0.1,2.9-0.9,5.8-2.8,8.1c-2,2.4-4.6,4.2-7.5,5.3c-3.4,1.3-7,2-10.7,1.9c-3.2,0-6.5-0.5-9.6-1.5
		c-2.8-0.9-5.3-2.5-7.3-4.6c-2-2.2-3.1-5-3.3-7.9h-10.7c0.2,4.4,1.7,8.6,4.3,12.1c2.7,3.6,6.4,6.4,10.6,8.2
		c10.6,4,22.3,3.9,32.8-0.3c4.3-1.9,8-4.9,10.6-8.8c2.4-3.7,3.7-8,3.6-12.4c0.1-3.5-0.7-7-2.5-10C728.4,865.1,726.3,862.8,723.8,861
		z"/>
	<polygon class="st0" points="804.8,816.5 767.3,858.2 766.3,858.2 766.3,816.5 756.1,816.5 756.1,900.6 766.3,900.6 766.3,873.3 
		776.7,861.5 805.8,900.6 818.1,900.6 782.9,854.4 818.1,816.5 	"/>
	<rect x="838.8" y="816.5" class="st0" width="10.3" height="84.1"/>
	<polygon class="st0" points="928.8,816.5 904.9,855.8 903.9,855.8 880.2,816.5 868.3,816.5 899.3,865.9 899.3,900.6 909.7,900.6 
		909.7,865.9 940.7,816.5 	"/>
</g>
<path class="st0" d="M376.6,747.7c1.4,0,2.5,1.1,2.5,2.5v3.3c0,1.4-1.1,2.5-2.5,2.5H260.4c-1.4,0-2.5-1.1-2.5-2.5v-3.3
	c0-1.4,1.1-2.5,2.5-2.5H376.6z M357.2,728.1l7.9,6.4c0.6,0.5,0.9,1.2,0.9,1.9v6.2h-95.1v-6.2c0-0.8,0.3-1.5,0.9-1.9l7.9-6.4H357.2z
	 M296.2,230.8v492.3h-14.8V230.8H296.2z M316,230.8v492.3h-14.8V230.8H316z M335.8,230.8v492.3H321V230.8H335.8z M355.6,230.8v492.3
	h-14.8V230.8H355.6z M358.1,217.5c2,0,3.2,2.3,2,3.9l-3.2,4.4h-76.7l-3.2-4.4c-1.2-1.6,0-3.9,2-3.9H358.1z M373.3,154.4v12.1
	c0,0.7-0.3,1.4-0.8,1.9l-0.1,0.1l-14,11.3c-1.8,1.4-2.8,3.6-2.8,5.8v26.9h-74.2v-26.9c0-2.3-1.1-4.4-2.8-5.8l-14-11.3
	c-0.6-0.5-0.9-1.2-0.9-1.9v-12.1H373.3z M384.5,138c1.4,0,2.5,1.1,2.5,2.5v6.4c0,1.4-1.1,2.5-2.5,2.5h-132c-1.4,0-2.5-1.1-2.5-2.5
	v-6.4c0-1.4,1.1-2.5,2.5-2.5H384.5z"/>
<path class="st0" d="M763.6,747.7c1.4,0,2.5,1.1,2.5,2.5v3.3c0,1.4-1.1,2.5-2.5,2.5H647.4c-1.4,0-2.5-1.1-2.5-2.5v-3.3
	c0-1.4,1.1-2.5,2.5-2.5H763.6z M744.2,728.1l7.9,6.4c0.6,0.5,0.9,1.2,0.9,1.9v6.2h-95.1v-6.2c0-0.8,0.3-1.5,0.9-1.9l7.9-6.4H744.2z
	 M683.2,230.8v492.3h-14.8V230.8H683.2z M703,230.8v492.3h-14.8V230.8H703z M722.8,230.8v492.3H708V230.8H722.8z M742.6,230.8v492.3
	h-14.8V230.8H742.6z M745.1,217.5c2,0,3.2,2.3,2,3.9l-3.2,4.4h-76.7l-3.2-4.4c-1.2-1.6,0-3.9,2-3.9H745.1z M760.3,154.4v12.1
	c0,0.7-0.3,1.4-0.8,1.9l-0.1,0.1l-14,11.3c-1.8,1.4-2.8,3.6-2.8,5.8v26.9h-74.2v-26.9c0-2.3-1.1-4.4-2.8-5.8l-14-11.3
	c-0.6-0.5-0.9-1.2-0.9-1.9v-12.1H760.3z M771.5,138c1.4,0,2.5,1.1,2.5,2.5v6.4c0,1.4-1.1,2.5-2.5,2.5h-132c-1.4,0-2.5-1.1-2.5-2.5
	v-6.4c0-1.4,1.1-2.5,2.5-2.5H771.5z"/>
<path class="st1" d="M606.4,642.1c-33.9,52.7-104.1,68-156.7,34.1c-37-23.8-55.5-65.6-51.3-106.7c1.7-17.3,7.5-35.1,17.5-50.7
	c6.4-3.8,11-2,16.2,1.2c11.8,6.1,26.4,0.7,34.3-9.2c8.7-10.5,19.6-19.9,33.1-23.4c0.5-7.4,0.8-15.7-2.1-22.8
	c-0.8-2.1-1.9-4.1-3.4-5.9c-11.3-0.3-22.6-0.3-33.9-0.8c-18.9,7.4-38.3,15.5-52.7,30.3c-5.2,5.3-9.6,11.5-12.9,18.2
	c-41.7,64.8-23.8,152.2,40.9,193.8c38.3,24.6,84.1,28.1,123.8,13.4c2.6-1,5.2-2,7.8-3.1c3.3-1.3,6.5-2.8,9.7-4.4
	c40.9-21.4,68.9-64.2,68.9-113.6c0-3-0.1-6-0.3-8.9c-4.6-66.5-60-119.1-127.7-119.1c-3.5,0-7,0.1-10.5,0.4
	C591,471.9,654.3,567.7,606.4,642.1z M428.4,499.2c1.8-4,4.9-7.2,7.6-10.5c9.2-11.8,24.9-11.7,38.4-12.7c-7.7,7.7-12,21.8-24.4,22.8
	c-4.6-0.4-8.8-3.7-13.5-2.7C433.5,496.4,430.8,497.8,428.4,499.2z"/>
<path class="st1" d="M411,252.6c33.9-52.7,104.1-68,156.7-34.1c37,23.8,55.5,65.6,51.3,106.7c-1.7,17.3-7.5,35.1-17.5,50.7
	c-6.3,3.8-11,2-16.2-1.2c-11.8-6.1-26.4-0.7-34.3,9.2c-8.7,10.5-19.6,19.9-33.1,23.4c-0.5,7.4-0.8,15.7,2.1,22.8
	c0.8,2.1,1.9,4.1,3.4,5.9c11.3,0.3,22.6,0.3,33.9,0.8c18.9-7.4,38.3-15.5,52.7-30.3c5.2-5.3,9.6-11.5,12.9-18.2
	c41.7-64.8,23.8-152.2-40.9-193.8c-38.3-24.6-84.1-28.1-123.8-13.4c-2.6,1-5.2,2-7.8,3.1c-3.3,1.3-6.5,2.8-9.7,4.4
	C399.9,209.8,372,252.6,372,302c0,3,0.1,6,0.3,8.9c4.6,66.5,60,119.1,127.7,119.1c3.5,0,7-0.1,10.5-0.4
	C426.5,422.8,363.1,327,411,252.6z M589.1,395.4c-1.8,4-4.9,7.2-7.6,10.5c-9.2,11.8-24.9,11.7-38.4,12.7c7.7-7.7,12-21.8,24.4-22.8
	c4.6,0.4,8.8,3.7,13.5,2.7C584,398.3,586.6,396.9,589.1,395.4z"/>
<g>
	<path class="st0" d="M620.6,961.8c-1.4-1.6-3.3-2.6-5.8-3v-0.3c2-0.5,3.5-1.5,4.7-2.9c1.2-1.5,1.8-3.2,1.8-5.3
		c0-1.8-0.5-3.5-1.4-5.1c-1-1.5-2.3-2.8-4.1-3.7c-1.7-0.9-3.8-1.4-6.2-1.4c-2.3,0-4.4,0.4-6.3,1.3c-1.9,0.9-3.4,2.1-4.5,3.6
		c-1.1,1.5-1.7,3.3-1.8,5.3h5.5c0-1.1,0.4-2.1,1.1-2.9c0.7-0.8,1.5-1.5,2.6-1.9c1.1-0.5,2.2-0.7,3.4-0.7c1.3,0,2.4,0.2,3.3,0.7
		c1,0.5,1.7,1.2,2.2,2c0.5,0.9,0.8,1.9,0.8,3c0,1.2-0.3,2.3-0.9,3.2c-0.6,0.9-1.4,1.6-2.5,2.1c-1,0.5-2.3,0.8-3.7,0.8h-3.2v4.6h3.2
		c1.7,0,3.2,0.3,4.4,0.8c1.2,0.5,2.2,1.3,2.8,2.3c0.6,1,1,2.1,1,3.3c0,1.2-0.3,2.3-1,3.2c-0.6,0.9-1.5,1.6-2.7,2.1
		c-1.1,0.5-2.4,0.8-3.9,0.8c-1.3,0-2.6-0.2-3.7-0.7c-1.1-0.4-2-1.1-2.7-1.9c-0.7-0.8-1-1.8-1.1-2.9h-5.7c0.1,2,0.7,3.8,1.8,5.4
		c1.1,1.5,2.7,2.7,4.7,3.6c2,0.9,4.2,1.3,6.7,1.3c2.6,0,4.8-0.5,6.8-1.4c2-0.9,3.6-2.2,4.7-3.9c1.2-1.6,1.7-3.5,1.7-5.5
		C622.7,965.3,622,963.4,620.6,961.8z"/>
	<path class="st0" d="M583.9,955c-1.8-1.1-3.8-1.6-6.1-1.6c-1.4,0-2.7,0.2-3.9,0.7c-1.2,0.5-2.2,1.1-2.9,1.8h-0.2l1.2-10.5h15.9
		v-4.8h-20.6l-2.1,18.9l5.2,0.8c0.7-0.6,1.6-1.1,2.8-1.5c1.1-0.4,2.3-0.6,3.4-0.6c1.5,0,2.8,0.4,4,1c1.2,0.7,2.1,1.6,2.7,2.8
		c0.7,1.2,1,2.6,1,4.1c0,1.5-0.3,2.8-1,4c-0.6,1.2-1.5,2.1-2.6,2.8c-1.1,0.7-2.4,1-3.8,1c-1.8,0-3.4-0.5-4.6-1.6c-1.3-1-2-2.4-2.1-4
		h-5.5c0.1,2,0.7,3.8,1.7,5.3c1.1,1.5,2.5,2.8,4.4,3.7c1.8,0.9,3.9,1.3,6.2,1.3c2.5,0,4.7-0.5,6.7-1.6c2-1.1,3.5-2.6,4.6-4.5
		c1.1-1.9,1.7-4.1,1.6-6.5c0-2.4-0.5-4.6-1.5-6.4C587.1,957.6,585.7,956.1,583.9,955z"/>
	<path class="st0" d="M553.4,943.9c-1.3-1.4-2.8-2.3-4.4-2.9c-1.6-0.6-3.3-0.9-4.9-0.9c-2.6,0-4.9,0.5-6.9,1.7
		c-1.9,1.1-3.5,2.6-4.5,4.6c-1.1,1.9-1.6,4.1-1.6,6.4c0,2.4,0.5,4.5,1.6,6.4c1,1.9,2.5,3.3,4.2,4.4c1.8,1.1,3.7,1.6,5.9,1.6
		c1.3,0,2.6-0.2,3.8-0.6c1.2-0.4,2.2-1,3.2-1.8c1-0.8,1.7-1.7,2.4-2.7h0.3c0,4.3-0.8,7.7-2.3,10.1c-1.5,2.4-3.7,3.6-6.4,3.6
		c-1.8,0-3.3-0.5-4.4-1.5c-1.1-1-1.9-2.3-2.2-3.9h-5.6c0.3,2,0.9,3.8,2,5.4c1.1,1.6,2.5,2.8,4.2,3.6c1.7,0.9,3.7,1.3,5.9,1.3
		c2.2,0,4.1-0.5,5.9-1.4c1.7-0.9,3.2-2.3,4.4-4c1.2-1.8,2.2-3.9,2.8-6.5c0.7-2.6,1-5.5,1-8.8c0-3.4-0.4-6.3-1.2-8.6
		C555.8,947,554.8,945.2,553.4,943.9z M551.1,955.5c-0.4,0.9-0.9,1.8-1.6,2.5c-0.7,0.7-1.5,1.3-2.4,1.7c-0.9,0.4-1.9,0.6-3,0.6
		c-1.4,0-2.7-0.3-3.8-1c-1.1-0.7-2-1.6-2.6-2.8c-0.6-1.2-1-2.5-1-4c0-1.5,0.3-2.8,1-4c0.7-1.2,1.6-2.1,2.7-2.8
		c1.1-0.7,2.4-1.1,3.9-1.1c1.5,0,2.7,0.4,3.9,1.1c1.1,0.7,2,1.7,2.7,2.9c0.7,1.2,1,2.5,1,3.8C551.7,953.6,551.5,954.6,551.1,955.5z"
		/>
	<polygon class="st0" points="506.6,946.6 506.6,952.1 515.6,946.2 515.8,946.2 515.8,978 521.5,978 521.5,940.5 516,940.5 	"/>
	<path class="st0" d="M483.3,971c-1,0-1.9,0.4-2.6,1.1c-0.7,0.7-1.1,1.6-1.1,2.6c0,1,0.4,1.9,1.1,2.6c0.7,0.7,1.6,1.1,2.6,1.1
		c0.7,0,1.3-0.2,1.8-0.5c0.5-0.3,1-0.8,1.3-1.3c0.3-0.6,0.5-1.2,0.5-1.8c0-1-0.4-1.9-1.1-2.6C485.2,971.4,484.3,971,483.3,971z"/>
	<path class="st0" d="M472.4,973.4c-0.3,0.1-0.7,0.1-1.2,0.1c-0.6,0-1.2-0.1-1.7-0.3c-0.5-0.2-0.9-0.6-1.2-1.1
		c-0.3-0.5-0.5-1.3-0.5-2.4v-15.5h5.8v-4.4h-5.8v-6.7h-5.5v6.7h-4.1v4.4h4.1v16.6c0,1.7,0.4,3.1,1.2,4.2c0.8,1.1,1.8,2,3,2.5
		c1.2,0.5,2.6,0.8,4,0.8c0.9,0,1.6-0.1,2.2-0.2c0.6-0.1,1-0.2,1.4-0.4l-1-4.5C473,973.3,472.8,973.3,472.4,973.4z"/>
	<path class="st0" d="M446.9,962.3l-4.5-1c-1.5-0.4-2.7-0.8-3.4-1.4c-0.7-0.6-1-1.3-1-2.3c0-1.1,0.5-2,1.6-2.7c1-0.7,2.3-1,3.9-1
		c1.1,0,2.1,0.2,2.8,0.5c0.8,0.4,1.4,0.8,1.8,1.4c0.5,0.6,0.8,1.2,1,1.8l5-0.9c-0.6-2.2-1.7-3.9-3.5-5.3c-1.7-1.3-4.1-2-7.2-2
		c-2.1,0-4,0.4-5.6,1.1c-1.6,0.7-2.9,1.7-3.8,2.9c-0.9,1.2-1.4,2.7-1.4,4.4c0,2,0.6,3.7,1.9,5c1.3,1.3,3.2,2.3,5.8,2.9l4.8,1
		c1.3,0.3,2.3,0.8,3,1.4c0.7,0.6,1,1.3,1,2.2c0,1.1-0.5,2-1.6,2.8c-1.1,0.7-2.5,1.1-4.3,1.1c-1.6,0-3-0.3-4-1c-1-0.7-1.7-1.8-2-3.1
		l-5.3,0.8c0.5,2.5,1.7,4.4,3.7,5.8c2,1.3,4.6,2,7.7,2c2.3,0,4.3-0.4,6-1.1c1.7-0.7,3.1-1.8,4-3.1c1-1.3,1.5-2.8,1.5-4.5
		c0-2-0.6-3.6-1.9-4.8C451.4,963.8,449.4,962.9,446.9,962.3z"/>
	<path class="st0" d="M423,952.8c-1.2-1.1-2.5-1.9-4-2.5c-1.5-0.5-3-0.8-4.6-0.8c-2.6,0-4.9,0.6-6.8,1.8c-1.9,1.2-3.5,2.9-4.5,5.1
		c-1.1,2.2-1.6,4.7-1.6,7.6c0,2.9,0.5,5.5,1.6,7.6c1.1,2.2,2.6,3.8,4.6,5c2,1.2,4.4,1.8,7.2,1.8c2,0,3.9-0.3,5.5-0.9
		c1.6-0.6,2.9-1.5,4-2.7c1.1-1.1,1.8-2.5,2.2-4l-5.2-0.9c-0.3,0.9-0.8,1.6-1.4,2.2c-0.6,0.6-1.4,1-2.2,1.4c-0.9,0.3-1.8,0.4-2.8,0.4
		c-1.6,0-3-0.3-4.2-1c-1.2-0.7-2.1-1.7-2.8-3c-0.6-1.2-0.9-2.7-1-4.4h20v-1.9c0-2.5-0.3-4.7-1-6.5
		C425.1,955.4,424.2,953.9,423,952.8z M406.9,961.5c0.1-1.2,0.4-2.3,0.9-3.4c0.6-1.2,1.5-2.2,2.6-2.9c1.1-0.8,2.5-1.1,4-1.1
		c1.4,0,2.6,0.3,3.7,1c1.1,0.6,1.9,1.5,2.5,2.7c0.6,1.1,0.9,2.4,0.9,3.8H406.9z"/>
</g>
</svg>
